<svg xmlns="http://www.w3.org/2000/svg" width="2000" height="2000" enable-background="new 0 0 2000 2000" viewBox="0 0 2000 2000"><path d="M1473.2803 485.7188H526.7188c-8.3315 0-16.2881 3.4648-21.9634 9.5645s-8.5586 14.2852-7.9585 22.5957l84.8018 1174.8154c1.1216 16.2295 7.9658 31.5537 19.272 43.1504C612.9131 1748.1973 628.5991 1755 645.0391 1755h709.9219c16.4395 0 32.126-6.8027 44.1689-19.1553 11.3057-11.5967 18.1494-26.9209 19.2646-43.0586l84.8076-1174.9072c.5996-8.3105-2.2832-16.4961-7.958-22.5957C1489.5684 489.1836 1481.6123 485.7188 1473.2803 485.7188zM1358.5439 1688.5576c-.2568 3.7158-2.752 6.0762-3.7656 6.4424H645.2212c-1.0137-.3662-3.5088-2.7295-3.772-6.5342L558.9624 545.7188h882.0747L1358.5439 1688.5576zM1524.0098 369.9678h-339.6592c-3.6045-27.5967-12.1445-53.2002-24.9473-74.0596C1139.5459 263.5557 1110.458 245 1079.5977 245H920.4023c-30.8599 0-59.9482 18.5557-79.8057 50.9082-12.8027 20.8594-21.3438 46.4629-24.9473 74.0596H475.9902c-16.5688 0-30 13.4316-30 30s13.4312 30 30 30h1048.0195c16.5684 0 30-13.4316 30-30S1540.5781 369.9678 1524.0098 369.9678zM891.7324 327.2949C900.4292 313.126 910.8789 305 920.4023 305h159.1953c9.5234 0 19.9736 8.126 28.6699 22.2949 7.1855 11.709 12.4492 26.4922 15.376 42.6729H876.3564C879.2837 353.7871 884.5459 339.0039 891.7324 327.2949z"/><path d="M737.1987 1571.3779c.9585 15.9258 14.1719 28.1992 29.9175 28.1982.606 0 1.2178-.0186 1.8306-.0547 16.5391-.9961 29.1392-15.21 28.1436-31.749-.1333-2.2109-13.4741-223.6904-27.6445-444.0469-8.3257-129.4639-15.3047-233.2295-20.7441-308.4141-10.7358-148.3877-12.4487-151.3389-17.0259-159.2266-8.3174-14.3291-26.6758-19.2051-41.0054-10.8887-12.3433 7.1631-17.6714 21.7773-13.5972 34.8496C684.3179 721.5117 716.8936 1234.0205 737.1987 1571.3779zM1231.0527 1599.5215c.6143.0361 1.2236.0547 1.8311.0547 15.7441 0 28.959-12.2734 29.918-28.1982 20.3047-337.3574 52.8799-849.8662 60.125-891.332 4.0742-13.0723-1.2539-27.6865-13.5967-34.8496-14.332-8.3145-32.6885-3.4424-41.0059 10.8887-4.5771 7.8877-6.29 10.8389-17.0254 159.2266-5.4395 75.1846-12.4189 178.9502-20.7441 308.4141-14.1709 220.3564-27.5117 441.8359-27.6455 444.0469C1201.9141 1584.3115 1214.5146 1598.5254 1231.0527 1599.5215zM1000 1599.5752c16.5684 0 30-13.4316 30-30V671.1436c0-16.5684-13.4316-30-30-30s-30 13.4316-30 30v898.4316C970 1586.1436 983.4316 1599.5752 1000 1599.5752z"/></svg>