<svg xmlns="http://www.w3.org/2000/svg" data-name="Layer 1" viewBox="0 0 512 512"><path fill="#1e1f27" d="M30.9707,184.08105H87.87012a7.5,7.5,0,0,0,0-15H30.9707a7.5,7.5,0,1,0,0,15Zm-15,30H87.87012a7.5,7.5,0,0,0,0-15H15.9707a7.5,7.5,0,1,0,0,15Zm30-60H87.87012a7.5,7.5,0,0,0,0-15H45.9707a7.5,7.5,0,1,0,0,15ZM504.5,429H485.02722a55.88007,55.88007,0,0,0,17.68469-32.19824,56.6081,56.6081,0,0,0-8.88842-41.06738l4.28491-2.54981a7.49933,7.49933,0,0,0,2.61035-10.28027,67.59967,67.59967,0,0,0-68.02466-32.25293c-6.38977-15.2146-12.967-36.88819-19.33764-57.89453-3.71631-12.25586-7.52979-24.82715-11.34571-36.25342H406.082a7.49974,7.49974,0,0,0,7.5-7.5v-44.0918a7.49974,7.49974,0,0,0-7.5-7.5H375.7168a29.59677,29.59677,0,0,0-28.57862,22.0459H318.44141a7.5,7.5,0,0,0,0,15h28.69677a29.49025,29.49025,0,0,0,5.96021,11.48193,7.5292,7.5292,0,0,0,.31177,1.2959c4.17871,12.227,11.53418,39.69434,12.0625,42.18848,8.2041,38.74512,9.35254,86.83105-31.76758,95.88672A51.9904,51.9904,0,0,1,283.9834,329.083c-15.47193-17.71472-16.49915-44.979-2.50513-66.31653a21.15387,21.15387,0,0,0-11.3855-38.99451H263.6897a17.47135,17.47135,0,0,0,.2-2.502V192.74536a62.49948,62.49948,0,1,0-57.00794-97.82544H127.87012a17.52,17.52,0,0,0-17.5,17.5V221.27a17.52,17.52,0,0,0,17.5,17.5H139.551a21.07742,21.07742,0,0,0,6.14807,21.92407c-2.59021,1.20484-5.12476,2.50672-7.58387,3.928-25.6997,14.85156-47.44384,43.7793-55.3955,73.69727-4.95191,18.63086-3.85157,35.55542,3.07446,47.73071.01074.02075.02222.04077.03308.06128.05408.09472.10095.19507.15564.28906.02539.04358.05762.0813.08374.12427q.17761.29187.38159.56579c.04.05408.076.1117.11756.16468a7.54358,7.54358,0,0,0,.56921.64233c.05627.05713.11572.10986.17383.16492q.24426.23236.50952.44287c.061.04822.12122.0968.18359.14294a7.47294,7.47294,0,0,0,.70374.46717l.02661.01684a7.43016,7.43016,0,0,0,.816.40137c.05749.02429.1167.04382.1748.06653q.32446.12744.66443.226c.0857.02478.17151.04773.25818.06946.08032.02026.15747.04687.239.06445.14111.03052.28173.0459.42248.06812.079.01233.15686.02819.23645.03808a7.4925,7.4925,0,0,0,.9314.0647c.01782,0,.03479-.0044.05261-.00452l.0343-.00036,26.58948-.34583A56.19554,56.19554,0,0,0,137.95081,429H7.5a7.5,7.5,0,0,0,0,15h497a7.5,7.5,0,0,0,0-15ZM442.64062,324.94238a52.59337,52.59337,0,0,1,40.89258,19.46l-3.59533,2.13941a7.46865,7.46865,0,0,0-2.339,1.392L391.27832,399.2998A52.56063,52.56063,0,0,1,412.917,334.08105l2.97363-1.76953A52.15021,52.15021,0,0,1,442.64062,324.94238Zm15.71,64.25489a11.305,11.305,0,0,1-22.11683.80615l18.60047-11.06824A11.31628,11.31628,0,0,1,458.35059,389.19727ZM361.1709,186.95752a14.56254,14.56254,0,0,1,14.5459-14.5459H398.582v29.0918H375.7168A14.56254,14.56254,0,0,1,361.1709,186.95752ZM270.09277,238.772a6.17088,6.17088,0,0,1,.07715,12.34131H198.80664a122.16365,122.16365,0,0,0-13.99023.00391H159.7998a6.17261,6.17261,0,1,1,0-12.34522ZM258.22168,83a47.50708,47.50708,0,1,1-47.50049,47.50732A47.55746,47.55746,0,0,1,258.22168,83ZM127.87012,223.77a2.50294,2.50294,0,0,1-2.5-2.5V112.41992a2.50294,2.50294,0,0,1,2.5-2.5H199.2207a62.47578,62.47578,0,0,0,49.66944,82.39478V221.27a2.50295,2.50295,0,0,1-2.5,2.5ZM97.21631,342.17285c6.98-26.26269,25.98-51.60547,48.4043-64.56445a89.85287,89.85287,0,0,1,39.6123-11.49121h77.46765c-10.65857,24.74023-7.14538,53.21875,9.986,72.833A67.17492,67.17492,0,0,0,336.93164,359.959c41.45313-9.1289,56.80078-49.4873,43.21582-113.64111-.51074-2.41357-4.42859-17.14892-8.22449-30.06641a29.63527,29.63527,0,0,0,3.79383.252h10.45605c4.27515,12.39917,8.61475,26.70971,12.8291,40.606,6.2284,20.53918,12.65235,41.70617,19.08838,57.48046a68.2861,68.2861,0,0,0-9.86963,4.83106l-2.97363,1.76953a67.03711,67.03711,0,0,0-30.89844,41.38574,68.4807,68.4807,0,0,0-1.62915,8.90564L257.8418,372.97559c-7.57569-34.81018-31.881-62.69849-62.04737-70.42871-20.54541-5.26368-43.88623-1.13672-64.04052,11.32128a102.69662,102.69662,0,0,0-36.74463,39.88013A78.77744,78.77744,0,0,1,97.21631,342.17285Zm5.07641,32.82544c6.58631-20.24487,19.85-37.55444,37.34839-48.37134,16.70459-10.32519,35.81543-13.80664,52.43018-9.54883,23.88611,6.11988,43.37549,28.14954,50.41821,56.097Zm84.23353,13.90564a11.29848,11.29848,0,0,1-22.21814.28894ZM175.395,428.2998a41.36137,41.36137,0,0,1-41.22424-38.715l15.0321-.19544a26.301,26.301,0,0,0,52.43628-.682l15.03162-.19544A41.35738,41.35738,0,0,1,175.395,428.2998ZM212.83923,429a56.17856,56.17856,0,0,0,18.83643-40.68335l19.506-.25366a7.48551,7.48551,0,0,0,1.023-.01319l120.44482-1.56652a67.26519,67.26519,0,0,0,9.11426,27.2052,7.49975,7.49975,0,0,0,10.28028,2.61035l5.17578-3.07984A56.31274,56.31274,0,0,0,409.36938,429Zm258.22522-7.9834A41.31384,41.31384,0,0,1,410.14,405.53076l12.97352-7.72a26.29593,26.29593,0,1,0,44.84008-26.68249l12.964-7.71424a41.30409,41.30409,0,0,1-9.85315,57.60254ZM258.22168,138.00732h21.62793a7.5,7.5,0,1,0,0-15H265.72168V102.15186a7.5,7.5,0,0,0-15,0v28.35546A7.50006,7.50006,0,0,0,258.22168,138.00732Z"/></svg>