<svg xmlns="http://www.w3.org/2000/svg" data-name="Layer 1" viewBox="0 0 512 512"><path d="M252.5,333.5A3.5,3.5,0,1,0,256,330,3.49994,3.49994,0,0,0,252.5,333.5ZM256,386a3.5,3.5,0,1,0,3.5,3.5A3.49994,3.49994,0,0,0,256,386ZM212.74707,152.084a28.16246,28.16246,0,0,1,10.02148-2.11279,28.56644,28.56644,0,0,1,11.45411,2.11328,3.49968,3.49968,0,1,0,2.65429-6.47656,35.21922,35.21922,0,0,0-26.78808.00049,3.5,3.5,0,1,0,2.6582,6.47558ZM501.5,341.10889H436.82715a83.49871,83.49871,0,0,0-31.14942-27.68311l-80.03222-41.061c-1.76038-.90137-3.58435-1.73682-5.42456-2.51954l-10.48072-12.20166V235.82568l1.4961-1.16845a55.19071,55.19071,0,0,0,21.32324-43.74707V174.15527a21.875,21.875,0,0,0,18.01172-17.58252l1.23437-6.63818a23.12443,23.12443,0,0,0-19.24609-27.08887v-2.58789l1.49023-3.33838a12.21746,12.21746,0,0,0,.10059-9.707V82.62012a59.33789,59.33789,0,0,0-57.96216-59.24707,19.62015,19.62015,0,1,0-38.50146,0,59.33811,59.33811,0,0,0-57.967,59.24707v23.68017c-.0282.06055-.0636.11621-.09082.17725a12.279,12.279,0,0,0-.001,10.00049l1.68164,3.7666v2.60107a23.12483,23.12483,0,0,0-19.24512,27.08936l1.23438,6.63721a21.87547,21.87547,0,0,0,18.01074,17.583v16.75489A55.15952,55.15952,0,0,0,201.7002,233.8833v24.41162l-9.92115,11.55029c-1.84033.78272-3.66455,1.61817-5.42651,2.52051l-80.03027,41.06006a83.15865,83.15865,0,0,0-45.38184,74.29443V508.5a3.5,3.5,0,1,0,7,0V476.38574h56.67969V508.5a3.5,3.5,0,0,0,7,0V435.32617a3.5,3.5,0,0,0-7,0v11.07715H67.94043V387.72021a76.18643,76.18643,0,0,1,41.57715-68.06591l80.02832-41.05909c.80981-.41455,1.63867-.81054,2.47119-1.1997l13.33838,41.042a3.55139,3.55139,0,0,0,.37695.79932,18.37614,18.37614,0,0,0,13.916,8.48193q.86573.07983,1.72363.0791a18.35961,18.35961,0,0,0,13.501-5.89355l2.667-2.86377v89.48926a9.51081,9.51081,0,0,0,9.5,9.5H264.96a9.51081,9.51081,0,0,0,9.5-9.5V319.04053l2.667,2.86377a18.35775,18.35775,0,0,0,13.501,5.89355q.85694,0,1.72363-.0791a18.37614,18.37614,0,0,0,13.916-8.48193,3.55139,3.55139,0,0,0,.37695-.79932l13.33838-41.042c.832.38916,1.6604.78467,2.46924,1.19873l80.03125,41.06055a76.46021,76.46021,0,0,1,25.72388,21.4541H309.29492a10.5118,10.5118,0,0,0-10.5,10.5v18.9458a10.5118,10.5118,0,0,0,10.5,10.5h3.5V493.5a18.52065,18.52065,0,0,0,18.5,18.5H479.5A18.52065,18.52065,0,0,0,498,493.5V381.05469h3.5a10.5118,10.5118,0,0,0,10.5-10.5v-18.9458A10.5118,10.5118,0,0,0,501.5,341.10889ZM332.55957,129.9585a16.13129,16.13129,0,0,1,12.36328,18.69629l-1.23437,6.63818a14.87294,14.87294,0,0,1-11.12891,11.72754Zm-151.25,37.062a14.87359,14.87359,0,0,1-11.12793-11.728l-1.23437-6.63721a16.13186,16.13186,0,0,1,12.3623-18.69677ZM124.62012,453.40332v15.98242H67.94043V453.40332ZM325.55957,157.96h-.5a6.50753,6.50753,0,0,1-6.5-6.5V136.45508a22.07539,22.07539,0,0,0,7-4.50733ZM256.9375,7a12.62036,12.62036,0,1,1-12.62012,12.62012A12.63412,12.63412,0,0,1,256.9375,7ZM186.71973,82.62012A52.33955,52.33955,0,0,1,239,30.33984h1.52515a19.58182,19.58182,0,0,0,32.8247,0h1.52027a52.33955,52.33955,0,0,1,52.28027,52.28028v17.84082c-.345-.12891-.69311-.25244-1.05176-.35108-15.00488-4.123-43.72754-11.06591-67.51074-11.2373a228.536,228.536,0,0,0-71.5332,10.94971c-.11438.03662-.222.0874-.335.12744Zm-.7002,26.71289a5.16516,5.16516,0,0,1,3.17578-2.84571,221.13724,221.13724,0,0,1,69.3418-10.61474c22.98437.16553,51.03223,6.95508,65.70605,10.9873a5.261,5.261,0,0,1,3.36817,2.82764,5.1697,5.1697,0,0,1,.0459,4.37793l-1.82032,4.07764-.00317.00732-1.84058,4.123a14.90374,14.90374,0,0,1-16.668,8.45556l-29.34961-6.31836a99.32314,99.32314,0,0,0-42.07618.00049L206.55078,130.729a14.90037,14.90037,0,0,1-16.66894-8.45556l-3.86133-8.64844A5.20216,5.20216,0,0,1,186.01953,109.333Zm9.29,27.13183V151.46a6.50753,6.50753,0,0,1-6.5,6.5h-.5V131.93213A22.06552,22.06552,0,0,0,195.30957,136.46484Zm-7,54.44532V164.96h.5a13.51507,13.51507,0,0,0,13.5-13.5v-13.4375a21.57782,21.57782,0,0,0,5.71387-.45068l29.34863-6.31739a92.37372,92.37372,0,0,1,39.13086-.00048l29.34961,6.31836v-.00049a21.51763,21.51763,0,0,0,4.54394.48388c.38941,0,.77613-.02148,1.16309-.04248V151.46a13.51507,13.51507,0,0,0,13.5,13.5h.5v25.9502a48.23005,48.23005,0,0,1-18.63379,38.23144l-26.48242,20.68115a36.306,36.306,0,0,1-22.26367,7.66748h-2.48926a36.31764,36.31764,0,0,1-22.2666-7.66845l-26.47754-20.6792A48.23176,48.23176,0,0,1,188.30957,190.91016ZM302.74023,241.292v16.93506L256,289.8584l-47.2998-32.01026V239.39453l20.41406,15.94287a43.34189,43.34189,0,0,0,26.57617,9.15283h2.48926a43.33733,43.33733,0,0,0,26.57422-9.15185ZM229.75,317.13379a11.50017,11.50017,0,0,1-17.88379-1.311L198.04492,273.294l7.71582-8.98291,44.8916,30.38037Zm37.71,91.396a2.50263,2.50263,0,0,1-2.5,2.5H247.04a2.50263,2.50263,0,0,1-2.5-2.5V311.5249L256,299.22021l11.46,12.30469Zm32.67383-92.707a11.50017,11.50017,0,0,1-17.88379,1.311l-20.90234-22.44238,44.8916-30.38037,7.71582,8.98291ZM384.46484,505H331.29492a11.5131,11.5131,0,0,1-11.5-11.5V381.05469h64.66992Zm34.86621,0H391.46484V381.05469h27.86621ZM491,493.5A11.5131,11.5131,0,0,1,479.5,505H426.33105V381.05469H491Zm14-122.94531a3.50424,3.50424,0,0,1-3.5,3.5H309.29492a3.50424,3.50424,0,0,1-3.5-3.5v-18.9458a3.50424,3.50424,0,0,1,3.5-3.5H434.94128l.01184.00146.021-.00146H501.5a3.50424,3.50424,0,0,1,3.5,3.5ZM256,358a3.5,3.5,0,1,0,3.5,3.5A3.49994,3.49994,0,0,0,256,358Zm21.7793-205.916a28.16242,28.16242,0,0,1,10.02148-2.11279,28.53864,28.53864,0,0,1,11.4541,2.11328,3.49968,3.49968,0,1,0,2.6543-6.47656,35.21925,35.21925,0,0,0-26.78809.00049,3.5,3.5,0,1,0,2.65821,6.47558Zm-54.29492,3.876a3.50017,3.50017,0,0,0-3.5,3.5v7.67822a3.5,3.5,0,1,0,7,0V159.46A3.50018,3.50018,0,0,0,223.48438,155.96Zm65.03124,0a3.50018,3.50018,0,0,0-3.5,3.5v7.67822a3.5,3.5,0,1,0,7,0V159.46A3.50017,3.50017,0,0,0,288.51562,155.96ZM243.54,224.85938a35.144,35.144,0,0,0,12.50195,2.63574c.30274.00732.60352.01123.90528.01123a35.09163,35.09163,0,0,0,13.38085-2.64649,3.49968,3.49968,0,1,0-2.65429-6.47656,28.61809,28.61809,0,0,1-11.4541,2.11377,28.16729,28.16729,0,0,1-10.02149-2.11328,3.5,3.5,0,1,0-2.6582,6.47559Zm13.39453-21.20508a15.41932,15.41932,0,0,0,15.40234-15.40186v-4.02637a3.5,3.5,0,0,0-7,0v4.02637a8.40186,8.40186,0,1,1-16.80371,0v-4.02637a3.5,3.5,0,0,0-7,0v4.02637A15.41912,15.41912,0,0,0,256.93457,203.6543Z"/></svg>