<svg xmlns="http://www.w3.org/2000/svg" width="32" height="32" enable-background="new 0 0 32 32" viewBox="0 0 32 32"><path fill="#263238" d="M30.5,29h-29C1.224,29,1,28.776,1,28.5v-16C1,12.224,1.224,12,1.5,12S2,12.224,2,12.5V28h28V8.5
			C30,8.224,30.224,8,30.5,8S31,8.224,31,8.5v20C31,28.776,30.776,29,30.5,29z"/><path fill="#263238" d="M1.5 27c-.15 0-.3-.068-.398-.198-.167-.22-.124-.533.097-.7l8.884-6.74c.218-.166.532-.124.7.097.167.22.124.533-.097.7l-8.884 6.74C1.712 26.967 1.605 27 1.5 27zM30.5 27c-.105 0-.212-.033-.302-.102l-8.935-6.779c-.221-.167-.264-.48-.097-.7.168-.221.482-.263.7-.097l8.935 6.779c.221.167.264.48.097.7C30.8 26.932 30.65 27 30.5 27zM16 21.253c-.698 0-1.358-.229-1.859-.643L2.723 11.16C1.757 10.362 1 8.974 1 8V6.5C1 6.224 1.224 6 1.5 6h29C30.776 6 31 6.224 31 6.5V8c0 .974-.757 2.362-1.723 3.161l-11.418 9.448C17.358 21.024 16.698 21.253 16 21.253zM2 7v1c0 .675.636 1.791 1.359 2.39l11.418 9.45c.645.531 1.801.532 2.445-.001l11.418-9.448C29.364 9.791 30 8.675 30 8V7H2z"/><path fill="#263238" d="M16,21.253c-0.698,0-1.358-0.229-1.859-0.643L2.723,11.16C1.757,10.362,1,8.974,1,8V6.5
			C1,6.224,1.224,6,1.5,6h29C30.776,6,31,6.224,31,6.5V8c0,0.974-0.757,2.362-1.723,3.161l-11.418,9.448
			C17.358,21.024,16.698,21.253,16,21.253z M2,7v1c0,0.675,0.636,1.791,1.359,2.39l11.418,9.45c0.645,0.531,1.801,0.532,2.445-0.001
			l11.418-9.448C29.364,9.791,30,8.675,30,8V7H2z"/></svg>