<?xml version="1.0" encoding="iso-8859-1"?>
<!-- Generator: Adobe Illustrator 19.0.0, SVG Export Plug-In . SVG Version: 6.00 Build 0)  -->
<svg version="1.1" id="Layer_1" xmlns="http://www.w3.org/2000/svg" xmlns:xlink="http://www.w3.org/1999/xlink" x="0px" y="0px"
	 viewBox="0 0 512 512" style="enable-background:new 0 0 512 512;" xml:space="preserve">
<path style="fill:#EDEDED;" d="M486.003,147.313c-14.357-14.357-37.636-14.357-51.992,0l0,0L69.324,512l-68.587-0.738L0,442.676
	L364.687,77.988v0.001c14.357-14.358,14.357-37.636,0-51.993L390.683,0L512,121.317L486.003,147.313z"/>
<g>
	<path style="fill:#DBDBDB;" d="M451.341,60.659L0.738,511.261v0.001L69.324,512L434.01,147.313l0,0
		c14.358-14.357,37.636-14.357,51.992,0l25.996-25.996L451.341,60.659z"/>
	<path style="fill:#DBDBDB;" d="M2.903,422.441c-1.664-1.663-2.692-3.961-2.692-6.499c0-5.076,4.115-9.191,9.191-9.191h173.309
		c5.076,0,9.191,4.115,9.191,9.191c0,5.076-4.115,9.191-9.191,9.191H9.403C6.865,425.133,4.566,424.105,2.903,422.441z"/>
	<path style="fill:#DBDBDB;" d="M46.231,465.769c-1.663-1.664-2.691-3.962-2.692-6.499c0-5.076,4.115-9.191,9.191-9.191h86.655
		c5.076,0,9.191,4.115,9.191,9.191c0,5.076-4.115,9.191-9.191,9.191H52.73C50.192,468.461,47.894,467.432,46.231,465.769z"/>
	<path style="fill:#DBDBDB;" d="M46.231,379.114c-1.663-1.663-2.691-3.961-2.692-6.499c0-5.076,4.115-9.191,9.191-9.191h173.309
		c5.076,0,9.191,4.115,9.191,9.191c0.001,5.076-4.115,9.192-9.191,9.191H52.73C50.192,381.806,47.894,380.778,46.231,379.114z"/>
	<path style="fill:#DBDBDB;" d="M89.558,335.787c-1.663-1.663-2.692-3.962-2.692-6.499c0-5.076,4.115-9.191,9.191-9.191h173.309
		c5.076,0,9.191,4.115,9.191,9.191c0.001,5.077-4.115,9.192-9.191,9.191H96.057C93.52,338.479,91.222,337.45,89.558,335.787z"/>
	<path style="fill:#DBDBDB;" d="M132.885,292.459c-1.663-1.663-2.692-3.961-2.692-6.499c0-5.076,4.115-9.191,9.191-9.191
		l173.31,0.001c5.076,0,9.191,4.114,9.191,9.19c0,5.077-4.114,9.192-9.191,9.191H139.385
		C136.847,295.151,134.549,294.123,132.885,292.459z"/>
	<path style="fill:#DBDBDB;" d="M176.213,249.132c-1.663-1.663-2.692-3.961-2.692-6.499c0-5.076,4.115-9.191,9.191-9.191
		l173.309,0.001c5.076,0,9.192,4.114,9.191,9.191c0,5.076-4.115,9.191-9.191,9.19H182.712
		C180.174,251.824,177.876,250.795,176.213,249.132z"/>
	<path style="fill:#DBDBDB;" d="M219.54,205.805c-1.663-1.663-2.692-3.961-2.692-6.5c0-5.076,4.115-9.191,9.191-9.19h173.309
		c5.076,0,9.192,4.114,9.191,9.191c0.001,5.076-4.114,9.191-9.191,9.191l-173.309-0.001
		C223.502,208.496,221.203,207.468,219.54,205.805z"/>
	<path style="fill:#DBDBDB;" d="M262.868,162.478c-1.663-1.663-2.691-3.961-2.692-6.499c0-5.076,4.115-9.191,9.191-9.19h173.309
		c5.076,0,9.191,4.115,9.191,9.19c0,5.076-4.115,9.191-9.191,9.191H269.367C266.829,165.169,264.531,164.141,262.868,162.478z"/>
	<path style="fill:#DBDBDB;" d="M306.195,119.15c-1.664-1.663-2.692-3.961-2.692-6.499c0-5.076,4.115-9.191,9.191-9.191
		l86.655,0.001c5.077,0,9.192,4.114,9.191,9.191c0.001,5.076-4.114,9.191-9.191,9.19h-86.655
		C310.156,121.842,307.858,120.813,306.195,119.15z"/>
</g>
<g>
	<path style="fill:#CCCCCE;" d="M427.512,84.488c-3.589-3.589-3.589-9.409,0-12.997l17.331-17.331c3.589-3.589,9.409-3.589,12.999,0
		s3.589,9.409,0,12.997L440.51,84.49C436.921,88.078,431.101,88.078,427.512,84.488z"/>
	<path style="fill:#CCCCCE;" d="M182.712,425.133c5.076,0,9.191-4.115,9.191-9.191c0-5.076-4.115-9.191-9.191-9.191h-77.464
		l-18.382,18.382H182.712z"/>
	<path style="fill:#CCCCCE;" d="M46.231,465.769c1.664,1.663,3.962,2.691,6.499,2.691h86.655c5.076,0,9.191-4.115,9.191-9.191
		c0-5.076-4.115-9.191-9.191-9.191H61.921L46.231,465.769L46.231,465.769z"/>
	<path style="fill:#CCCCCE;" d="M226.039,381.806c5.076,0.001,9.192-4.115,9.191-9.191c0-5.076-4.115-9.191-9.191-9.191h-77.464
		l-18.381,18.382H226.039z"/>
	<path style="fill:#CCCCCE;" d="M269.367,338.479c5.076,0.001,9.192-4.114,9.191-9.191c0-5.076-4.115-9.191-9.191-9.191h-77.464
		l-18.382,18.382H269.367z"/>
	<path style="fill:#CCCCCE;" d="M312.694,295.151c5.076,0.001,9.191-4.114,9.191-9.191c0.001-5.077-4.115-9.19-9.191-9.19
		l-77.464-0.001l-18.382,18.382H312.694z"/>
	<path style="fill:#CCCCCE;" d="M356.021,251.824c5.076,0.001,9.191-4.114,9.191-9.19c0.001-5.077-4.115-9.191-9.191-9.191
		l-77.464-0.001l-18.381,18.382H356.021z"/>
	<path style="fill:#CCCCCE;" d="M408.54,199.306c0.001-5.077-4.115-9.191-9.191-9.191l-77.464-0.001l-18.382,18.382l95.846,0.001
		C404.425,208.497,408.54,204.382,408.54,199.306z"/>
	<path style="fill:#CCCCCE;" d="M451.867,155.978c0-5.076-4.115-9.19-9.191-9.19h-77.464l-18.381,18.382h95.846
		C447.752,165.17,451.867,161.054,451.867,155.978z"/>
	<path style="fill:#CCCCCE;" d="M408.54,112.651c0.001-2.539-1.028-4.837-2.692-6.5l-15.691,15.691l9.191-0.001
		C404.425,121.842,408.54,117.727,408.54,112.651z"/>
</g>
<g>
</g>
<g>
</g>
<g>
</g>
<g>
</g>
<g>
</g>
<g>
</g>
<g>
</g>
<g>
</g>
<g>
</g>
<g>
</g>
<g>
</g>
<g>
</g>
<g>
</g>
<g>
</g>
<g>
</g>
</svg>
