<?xml version="1.0" encoding="iso-8859-1"?>
<!-- Generator: Adobe Illustrator 16.0.0, SVG Export Plug-In . SVG Version: 6.00 Build 0)  -->
<!DOCTYPE svg PUBLIC "-//W3C//DTD SVG 1.1//EN" "http://www.w3.org/Graphics/SVG/1.1/DTD/svg11.dtd">
<svg version="1.1" id="Capa_1" xmlns="http://www.w3.org/2000/svg" xmlns:xlink="http://www.w3.org/1999/xlink" x="0px" y="0px"
	 width="32.021px" height="32.021px" viewBox="0 0 32.021 32.021" style="enable-background:new 0 0 32.021 32.021;"
	 xml:space="preserve">
<g>
	<g>
		<path d="M27.984,23.609l-1.028-4.17c-1.087,2.383-3.18,5.219-7.176,7.85l2.773,2.516C25.464,27.68,27.087,25.479,27.984,23.609z"
			/>
		<path d="M28.625,26.214c-1.034,1.566-2.531,3.229-4.686,4.847l0.288,0.263c0.878,0.796,2.172,0.926,3.188,0.317l0.508-0.303
			c1.019-0.607,1.519-1.808,1.234-2.958L28.625,26.214z"/>
		<path d="M26.125,16.076l-0.854-3.467c1.935-2.445,2.704-4.908,1.717-6.566c-0.437-0.73-1.821-3.054-2.528-4.234
			c-0.229,3.143-4.264,7.155-8.774,9.848c-3.656,2.183-7.524,3.486-10.344,3.486c-0.865,0-1.558-0.12-2.112-0.311
			c0.735,1.233,1.968,3.298,2.373,3.975c0.989,1.658,3.523,2.148,6.592,1.606l2.189,1.983c3.646-2.041,5.861-4.252,7.206-6.249
			c1.379-1.042,2.566-2.175,3.504-3.318c-0.745,2.89-2.955,7.156-9.283,10.859l2.564,2.326
			C24.104,22.389,25.702,18.395,26.125,16.076z"/>
		<path d="M6.013,13.283L16.86,0.497c-1.934,0.533-4.092,1.476-6.201,2.736C7.943,4.854,5.651,6.788,4.205,8.681
			c-1.238,1.616-1.705,3.037-1.25,3.796c0.319,0.537,1.166,0.833,2.386,0.833C5.558,13.31,5.783,13.302,6.013,13.283z"/>
		<path d="M14.75,10.083c5.58-3.333,8.675-7.632,7.709-9.248C22.138,0.297,21.292,0,20.071,0c-0.129,0-0.264,0.002-0.399,0.01
			L8.894,12.717C10.737,12.171,12.765,11.265,14.75,10.083z"/>
	</g>
</g>
<g>
</g>
<g>
</g>
<g>
</g>
<g>
</g>
<g>
</g>
<g>
</g>
<g>
</g>
<g>
</g>
<g>
</g>
<g>
</g>
<g>
</g>
<g>
</g>
<g>
</g>
<g>
</g>
<g>
</g>
</svg>
