<?xml version="1.0" encoding="iso-8859-1"?>
<!-- Generator: Adobe Illustrator 18.0.0, SVG Export Plug-In . SVG Version: 6.00 Build 0)  -->
<!DOCTYPE svg PUBLIC "-//W3C//DTD SVG 1.1//EN" "http://www.w3.org/Graphics/SVG/1.1/DTD/svg11.dtd">
<svg version="1.1" id="Capa_1" xmlns="http://www.w3.org/2000/svg" xmlns:xlink="http://www.w3.org/1999/xlink" x="0px" y="0px"
	 viewBox="0 0 155.695 155.695" style="enable-background:new 0 0 155.695 155.695;" xml:space="preserve">
<g>
	<path style="fill:#1D1D1B;" d="M107.398,8.443c-0.813-2.032-2.474-3.608-4.546-4.313C94.803,1.39,86.41,0,77.906,0
		C48.793,0,22.338,16.017,8.864,41.801C0.207,58.369-2.201,77.502,2.082,95.675c4.239,17.982,14.725,33.891,29.526,44.794
		c1.301,0.959,2.862,1.462,4.448,1.462c0.563,0,1.13-0.063,1.689-0.192c2.133-0.493,3.944-1.894,4.958-3.834l64.378-123.201
		C108.096,12.763,108.211,10.477,107.398,8.443z M33.761,122.63C14.491,103.592,9.323,73.313,22.159,48.748
		C33.036,27.932,54.398,15,77.906,15c3.885,0,7.742,0.359,11.536,1.073L33.761,122.63z"/>
	<path style="fill:#1D1D1B;" d="M153.613,60.021c-4.239-17.982-14.725-33.892-29.527-44.795c-1.763-1.3-4.005-1.762-6.138-1.27
		c-2.133,0.493-3.944,1.894-4.958,3.834L48.613,140.992c-1.014,1.94-1.129,4.227-0.316,6.26c0.813,2.032,2.474,3.608,4.546,4.313
		c8.047,2.74,16.44,4.129,24.945,4.13c0.003,0,0.003,0,0.006,0c29.108,0,55.563-16.018,69.036-41.801
		C155.488,97.327,157.897,78.193,153.613,60.021z M133.536,106.947c-10.878,20.817-32.236,33.749-55.742,33.748
		c-0.001,0-0.004,0-0.005,0c-3.886,0-7.743-0.36-11.536-1.073l55.68-106.557C141.204,52.104,146.372,82.383,133.536,106.947z"/>
</g>
<g>
</g>
<g>
</g>
<g>
</g>
<g>
</g>
<g>
</g>
<g>
</g>
<g>
</g>
<g>
</g>
<g>
</g>
<g>
</g>
<g>
</g>
<g>
</g>
<g>
</g>
<g>
</g>
<g>
</g>
</svg>
