<?xml version="1.0" encoding="utf-8"?><svg xmlns="http://www.w3.org/2000/svg" xmlns:xlink="http://www.w3.org/1999/xlink" width="789" height="664" preserveAspectRatio="xMidYMid" viewBox="0 0 789 664" style="z-index:1;margin-right:-2px;display:block;background-repeat-y:initial;background-repeat-x:initial;background-color:rgb(255, 255, 255);animation-play-state:paused" ><g transform="translate(394.5,332) scale(1,1) translate(-394.5,-332)" style="transform:matrix(1, 0, 0, 1, 0, 0);animation-play-state:paused" ><linearGradient id="lg-0.21911177113543379" x1="0" x2="1" y1="0" y2="0" style="animation-play-state:paused" ><stop stop-color="#2ded94" offset="0" style="animation-play-state:paused" ></stop>

  
<stop stop-color="#b5ecd9" offset="1" style="animation-play-state:paused" ></stop></linearGradient>
<path d="M 0 0 L 0 616.676 Q 197.25 463.359 394.5 426.172 T 789 421.923 L 789 0 Z" fill="url(#lg-0.21911177113543379)" opacity="0.4" style="opacity:0.4;animation-play-state:paused" ></path>
<path d="M 0 0 L 0 553.473 Q 197.25 529.927 394.5 512.345 T 789 586.078 L 789 0 Z" fill="url(#lg-0.21911177113543379)" opacity="0.4" style="opacity:0.4;animation-play-state:paused" ></path>
<path d="M 0 0 L 0 632.672 Q 197.25 489.129 394.5 445.874 T 789 588.256 L 789 0 Z" fill="url(#lg-0.21911177113543379)" opacity="0.4" style="opacity:0.4;animation-play-state:paused" ></path>
<path d="M 0 0 L 0 529.496 Q 197.25 472.128 394.5 443.201 T 789 514.84 L 789 0 Z" fill="url(#lg-0.21911177113543379)" opacity="0.4" style="opacity:0.4;animation-play-state:paused" ></path>
<path d="M 0 0 L 0 545.461 Q 197.25 448.74 394.5 419.821 T 789 425.391 L 789 0 Z" fill="url(#lg-0.21911177113543379)" opacity="0.4" style="opacity:0.4;animation-play-state:paused" ></path>
<path d="M 0 0 L 0 439.946 Q 197.25 541.812 394.5 512.039 T 789 543.332 L 789 0 Z" fill="url(#lg-0.21911177113543379)" opacity="0.4" style="opacity:0.4;animation-play-state:paused" ></path></g></svg>