<?xml version="1.0" encoding="iso-8859-1"?>
<!-- Generator: Adobe Illustrator 16.0.0, SVG Export Plug-In . SVG Version: 6.00 Build 0)  -->
<!DOCTYPE svg PUBLIC "-//W3C//DTD SVG 1.1//EN" "http://www.w3.org/Graphics/SVG/1.1/DTD/svg11.dtd">
<svg version="1.1" id="Capa_1" xmlns="http://www.w3.org/2000/svg" xmlns:xlink="http://www.w3.org/1999/xlink" x="0px" y="0px"
	 width="417.79px" height="417.79px" viewBox="0 0 417.79 417.79" style="enable-background:new 0 0 417.79 417.79;"
	 xml:space="preserve">
<g>
	<path d="M276.649,250.501l21.417,0.363v110.978c0,0.21-0.156,0.363-0.346,0.363l-21.427-0.363L276.649,250.501z"/>
	<rect x="164.686" width="18.286" height="31.751"/>
	<path d="M254.939,217.903c-0.143,0.75-0.133,1.503,0.041,2.236v141.703c0,0.21-0.163,0.368-0.368,0.368l-29.102-0.368
		L225.5,221.294c0-1.579-0.698-3.086-1.9-4.105l-8.44-7.128c-0.022-0.011-0.451-0.373-0.467-0.383
		c-0.499-0.41-1.048-0.714-1.628-0.919c-0.312-0.108-0.635-0.113-0.953-0.163c-0.286-0.048-0.559-0.15-0.838-0.15
		c-0.008,0-0.008,0-0.013,0c-0.433,0-0.858,0.113-1.283,0.226c-0.179,0.042-0.359,0.032-0.533,0.097
		c-0.585,0.215-1.145,0.528-1.643,0.945l-27.793,22.998l-12.296-15.135l41.938-35.187c0.989,0.307,1.646,0.409,2.646,0.146
		c0.139-0.023,0.8-0.065,0.944-0.103L254.939,217.903z"/>
	<path d="M120.083,331.606c-0.113,0-0.215,0.021-0.329,0.031l-0.026-0.41l0.36-19.495h27.83l26.99,0.366l-0.359,19.497
		L120.083,331.606z"/>
	<path d="M119.729,300.619l0.36-19.502h27.635l27.194,0.356l-0.365,19.508h-54.46c-0.113,0-0.221,0.036-0.339,0.036L119.729,300.619
		z"/>
	<path d="M153.104,182.37h39.623l-31.956,26.99c-2.27,1.918-3.661,4.601-3.907,7.566c-0.25,2.95,0.671,5.838,2.585,8.095
		l12.341,14.625c0.032,0.031,0.066,0.068,0.092,0.104H153.1L153.104,182.37z"/>
	<polygon points="120.094,250.501 147.724,250.501 174.918,250.865 174.554,270.371 147.724,270.371 119.729,269.999 	"/>
	<polygon points="120.094,367.589 119.724,361.852 120.094,342.357 147.929,342.357 174.918,342.713 174.554,362.21 147.729,362.21 
		147.719,362.215 120.094,362.215 	"/>
	<path d="M179.698,417.79c-14.665,0-26.594-11.932-26.594-26.603l0.005-18.222h21.444c6.131,0,11.116-4.981,11.116-11.113v-19.139
		c0-0.945-0.15-1.837-0.37-2.714c-0.071-0.258-0.153-0.499-0.239-0.751c-0.213-0.651-0.483-1.26-0.806-1.859
		c-0.074-0.125-0.108-0.288-0.182-0.418c0.063-0.102,0.084-0.221,0.145-0.337c0.354-0.64,0.646-1.307,0.871-2.005
		c0.073-0.227,0.145-0.447,0.205-0.678c0.225-0.887,0.375-1.79,0.375-2.725l-0.005-19.14c0-0.939-0.15-1.841-0.376-2.714
		c-0.065-0.252-0.147-0.488-0.228-0.729c-0.213-0.655-0.488-1.275-0.812-1.867c-0.074-0.133-0.103-0.285-0.176-0.41
		c0.074-0.125,0.103-0.273,0.166-0.395c0.344-0.624,0.629-1.265,0.845-1.948c0.078-0.239,0.16-0.476,0.221-0.723
		c0.214-0.872,0.359-1.765,0.359-2.677l0.005-19.142c0-0.943-0.15-1.847-0.375-2.729c-0.066-0.252-0.147-0.48-0.226-0.725
		c-0.216-0.649-0.486-1.27-0.809-1.862c-0.079-0.132-0.113-0.299-0.187-0.431c0.079-0.13,0.113-0.299,0.187-0.431
		c0.323-0.582,0.588-1.202,0.795-1.842c0.087-0.252,0.168-0.493,0.24-0.745c0.22-0.883,0.37-1.774,0.37-2.72l0.005-19.134
		c0-0.751-0.082-1.475-0.221-2.184c-0.048-0.241-0.139-0.462-0.205-0.698c-0.124-0.452-0.242-0.909-0.419-1.338
		c-0.113-0.27-0.263-0.511-0.392-0.773c-0.183-0.366-0.359-0.735-0.579-1.081c-0.168-0.262-0.373-0.482-0.56-0.725
		c-0.194-0.251-0.362-0.524-0.574-0.755c0.299-0.062,0.569-0.216,0.858-0.305c0.102-0.031,0.193-0.074,0.296-0.105
		c0.559-0.2,1.118-0.388,1.64-0.673c0.693-0.346,1.354-0.766,1.956-1.28l18.851-15.916v166.134
		C206.305,405.858,194.367,417.79,179.698,417.79z"/>
	<rect x="172.38" y="31.751" width="5.375" height="150.361"/>
</g>
<g>
</g>
<g>
</g>
<g>
</g>
<g>
</g>
<g>
</g>
<g>
</g>
<g>
</g>
<g>
</g>
<g>
</g>
<g>
</g>
<g>
</g>
<g>
</g>
<g>
</g>
<g>
</g>
<g>
</g>
</svg>
