<svg xmlns="http://www.w3.org/2000/svg" viewBox="0 0 50 50"><path fill="#231F20" d="M20.921 31.898c2.758 0 5.367-.956 7.458-2.704l1.077 1.077-.358.358a1 1 0 0 0 0 1.414l8.257 8.256a.997.997 0 0 0 1.414 0l2.208-2.208a1 1 0 0 0 0-1.414l-8.257-8.256a.999.999 0 0 0-1.414 0l-.436.436-1.073-1.073a11.555 11.555 0 0 0 2.777-7.537c0-3.112-1.212-6.038-3.413-8.239s-5.127-3.413-8.239-3.413-6.038 1.212-8.238 3.413a11.574 11.574 0 0 0-3.413 8.239c0 3.112 1.212 6.038 3.413 8.238a11.563 11.563 0 0 0 8.237 3.413zm17.934 5.487l-.794.793-6.843-6.842.794-.793 6.843 6.842zM14.097 13.423c1.823-1.823 4.246-2.827 6.824-2.827s5.002 1.004 6.825 2.827a9.59 9.59 0 0 1 2.827 6.825 9.587 9.587 0 0 1-2.827 6.824c-1.823 1.823-4.247 2.827-6.825 2.827s-5.001-1.004-6.824-2.827a9.589 9.589 0 0 1-2.827-6.824 9.583 9.583 0 0 1 2.827-6.825z"/></svg>