<svg xmlns="http://www.w3.org/2000/svg" xmlns:xlink="http://www.w3.org/1999/xlink" version="1.1" width="256" height="256" viewBox="0 0 256 256" xml:space="preserve">
<desc>Created with Fabric.js 1.7.22</desc>
<defs>
</defs>
<g transform="translate(128 128) scale(0.72 0.72)" style="">
	<g style="stroke: none; stroke-width: 0; stroke-dasharray: none; stroke-linecap: butt; stroke-linejoin: miter; stroke-miterlimit: 10; fill: none; fill-rule: nonzero; opacity: 1;" transform="translate(-175.05 -175.05000000000004) scale(3.89 3.89)" >
	<path d="M 73.424 61.469 H 28.639 c -4.812 0 -9.042 -3.414 -10.057 -8.117 l -6.662 -30.854 c -0.127 -0.591 0.019 -1.208 0.399 -1.679 c 0.379 -0.47 0.952 -0.744 1.556 -0.744 H 88 c 0.603 0 1.173 0.271 1.553 0.739 s 0.528 1.082 0.404 1.671 l -6.464 30.807 C 82.499 58.03 78.265 61.469 73.424 61.469 z M 16.353 24.076 l 6.139 28.432 c 0.621 2.874 3.206 4.961 6.147 4.961 h 44.785 c 2.959 0 5.547 -2.102 6.155 -4.998 l 5.958 -28.395 H 16.353 z" style="stroke: none; stroke-width: 1; stroke-dasharray: none; stroke-linecap: butt; stroke-linejoin: miter; stroke-miterlimit: 10; fill: rgb(0,0,0); fill-rule: nonzero; opacity: 1;" transform=" matrix(1 0 0 1 0 0) " stroke-linecap="round" />
	<path d="M 28.376 81.224 c -4.527 0 -8.209 -3.683 -8.209 -8.21 c 0 -4.526 3.683 -8.209 8.209 -8.209 s 8.209 3.683 8.209 8.209 C 36.586 77.541 32.903 81.224 28.376 81.224 z M 28.376 68.805 c -2.321 0 -4.209 1.888 -4.209 4.209 s 1.888 4.21 4.209 4.21 s 4.209 -1.889 4.209 -4.21 S 30.698 68.805 28.376 68.805 z" style="stroke: none; stroke-width: 1; stroke-dasharray: none; stroke-linecap: butt; stroke-linejoin: miter; stroke-miterlimit: 10; fill: rgb(0,0,0); fill-rule: nonzero; opacity: 1;" transform=" matrix(1 0 0 1 0 0) " stroke-linecap="round" />
	<path d="M 72.937 81.224 c -4.526 0 -8.209 -3.683 -8.209 -8.21 c 0 -4.526 3.683 -8.209 8.209 -8.209 c 4.527 0 8.21 3.683 8.21 8.209 C 81.146 77.541 77.464 81.224 72.937 81.224 z M 72.937 68.805 c -2.321 0 -4.209 1.888 -4.209 4.209 s 1.888 4.21 4.209 4.21 s 4.21 -1.889 4.21 -4.21 S 75.258 68.805 72.937 68.805 z" style="stroke: none; stroke-width: 1; stroke-dasharray: none; stroke-linecap: butt; stroke-linejoin: miter; stroke-miterlimit: 10; fill: rgb(0,0,0); fill-rule: nonzero; opacity: 1;" transform=" matrix(1 0 0 1 0 0) " stroke-linecap="round" />
	<path d="M 13.873 24.076 c -0.922 0 -1.75 -0.641 -1.953 -1.579 l -1.297 -6.009 c -0.464 -2.151 -2.398 -3.712 -4.599 -3.712 H 2 c -1.104 0 -2 -0.896 -2 -2 s 0.896 -2 2 -2 h 4.023 c 4.071 0 7.649 2.888 8.509 6.868 l 1.297 6.009 c 0.233 1.08 -0.453 2.144 -1.533 2.377 C 14.154 24.062 14.012 24.076 13.873 24.076 z" style="stroke: none; stroke-width: 1; stroke-dasharray: none; stroke-linecap: butt; stroke-linejoin: miter; stroke-miterlimit: 10; fill: rgb(0,0,0); fill-rule: nonzero; opacity: 1;" transform=" matrix(1 0 0 1 0 0) " stroke-linecap="round" />
	<path d="M 50.938 51.263 c -1.104 0 -2 -0.896 -2 -2 V 30.636 c 0 -1.104 0.896 -2 2 -2 s 2 0.896 2 2 v 18.626 C 52.938 50.367 52.042 51.263 50.938 51.263 z" style="stroke: none; stroke-width: 1; stroke-dasharray: none; stroke-linecap: butt; stroke-linejoin: miter; stroke-miterlimit: 10; fill: rgb(0,0,0); fill-rule: nonzero; opacity: 1;" transform=" matrix(1 0 0 1 0 0) " stroke-linecap="round" />
	<path d="M 66.178 51.263 c -0.078 0 -0.156 -0.004 -0.235 -0.014 c -1.097 -0.128 -1.882 -1.121 -1.754 -2.219 l 2.177 -18.626 c 0.129 -1.098 1.13 -1.883 2.219 -1.754 c 1.097 0.128 1.882 1.122 1.754 2.218 l -2.177 18.627 C 68.042 50.513 67.178 51.263 66.178 51.263 z" style="stroke: none; stroke-width: 1; stroke-dasharray: none; stroke-linecap: butt; stroke-linejoin: miter; stroke-miterlimit: 10; fill: rgb(0,0,0); fill-rule: nonzero; opacity: 1;" transform=" matrix(1 0 0 1 0 0) " stroke-linecap="round" />
	<path d="M 35.697 51.263 c -0.953 0 -1.797 -0.684 -1.967 -1.654 l -3.265 -18.627 c -0.191 -1.088 0.537 -2.125 1.625 -2.315 c 1.085 -0.19 2.124 0.537 2.315 1.625 l 3.265 18.626 c 0.191 1.088 -0.537 2.125 -1.625 2.315 C 35.928 51.253 35.812 51.263 35.697 51.263 z" style="stroke: none; stroke-width: 1; stroke-dasharray: none; stroke-linecap: butt; stroke-linejoin: miter; stroke-miterlimit: 10; fill: rgb(0,0,0); fill-rule: nonzero; opacity: 1;" transform=" matrix(1 0 0 1 0 0) " stroke-linecap="round" />
</g>
</g>
</svg>